<svg width="600" height="337" viewBox="0 0 800 600" fill="none" xmlns="http://www.w3.org/2000/svg">
<path d="M737.482 355.092H98.1348V504.074H737.482V355.092Z" fill="#C4B6FF"></path>
<path d="M737.482 355.092H98.1348V504.074H737.482V355.092Z" fill="black" fill-opacity="0.5"></path>
<path d="M737.479 398.4H406.059V526.378H737.479V398.4Z" fill="#C4B6FF"></path>
<path d="M716.588 513.385H426.96C421.763 513.385 417.54 509.162 417.54 503.965V454.918C417.54 449.721 421.763 445.498 426.96 445.498H716.588C721.785 445.498 726.007 449.721 726.007 454.918V503.965C726.007 509.162 721.785 513.385 716.588 513.385Z" fill="#7D55FF"></path>
<path d="M754.807 430.989H80.8131C71.8265 430.989 64.5723 423.735 64.5723 414.749C64.5723 405.762 71.8265 398.508 80.8131 398.508H754.807C763.793 398.508 771.048 405.762 771.048 414.749C771.048 423.627 763.793 430.989 754.807 430.989Z" fill="#B5CDFB"></path>
<path d="M575.618 486.534C579.505 486.534 582.655 483.383 582.655 479.497C582.655 475.61 579.505 472.459 575.618 472.459C571.731 472.459 568.58 475.61 568.58 479.497C568.58 483.383 571.731 486.534 575.618 486.534Z" fill="#C4B6FF"></path>
<path d="M790.001 350.442H142.529V359.742H790.001V350.442Z" fill="#C4B6FF"></path>
<path d="M551.687 208.491H483.15V346.646H551.687V208.491Z" fill="#7D55FF"></path>
<path d="M725.467 281.359H309.486C304.289 281.359 300.066 277.136 300.066 271.939V88.6345C300.066 83.4375 304.289 79.2148 309.486 79.2148H725.467C730.665 79.2148 734.887 83.4375 734.887 88.6345V272.047C734.887 277.245 730.665 281.359 725.467 281.359Z" fill="#C4B6FF"></path>
<path opacity="0.25" d="M707.927 137.14H327.026C322.262 137.14 318.473 133.351 318.473 128.587C318.473 123.823 322.262 120.033 327.026 120.033H708.036C712.8 120.033 716.589 123.823 716.589 128.587C716.589 133.242 712.691 137.14 707.927 137.14Z" fill="#E6E6E6"></path>
<path opacity="0.25" d="M470.269 196.798H417.324C413.643 196.798 410.611 193.766 410.611 190.085V161.718C410.611 158.036 413.643 155.005 417.324 155.005H470.269C473.951 155.005 476.982 158.036 476.982 161.718V190.085C477.09 193.766 474.059 196.798 470.269 196.798Z" fill="#E6E6E6"></path>
<path opacity="0.25" d="M547.145 196.798H494.2C490.519 196.798 487.487 193.766 487.487 190.085V161.718C487.487 158.036 490.519 155.005 494.2 155.005H547.145C550.826 155.005 553.858 158.036 553.858 161.718V190.085C553.966 193.766 550.935 196.798 547.145 196.798Z" fill="#E6E6E6"></path>
<path opacity="0.25" d="M624.013 196.798H571.068C567.387 196.798 564.355 193.766 564.355 190.085V161.718C564.355 158.036 567.387 155.005 571.068 155.005H624.013C627.695 155.005 630.726 158.036 630.726 161.718V190.085C630.835 193.766 627.803 196.798 624.013 196.798Z" fill="#E6E6E6"></path>
<path opacity="0.25" d="M700.89 196.798H647.945C644.264 196.798 641.232 193.766 641.232 190.085V161.718C641.232 158.036 644.264 155.005 647.945 155.005H700.89C704.572 155.005 707.603 158.036 707.603 161.718V190.085C707.711 193.766 704.68 196.798 700.89 196.798Z" fill="#E6E6E6"></path>
<path d="M428.691 398.401H260.761C258.379 398.401 256.322 396.452 256.322 393.962V385.842C256.322 383.46 258.271 381.402 260.761 381.402H420.571C427.5 381.402 433.131 387.032 433.131 393.962C433.131 396.452 431.182 398.401 428.691 398.401Z" fill="#C4B6FF"></path>
<path opacity="0.25" d="M470.269 245.845H417.324C413.643 245.845 410.611 242.813 410.611 239.132V210.765C410.611 207.083 413.643 204.052 417.324 204.052H470.269C473.951 204.052 476.982 207.083 476.982 210.765V239.132C477.09 242.813 474.059 245.845 470.269 245.845Z" fill="#E6E6E6"></path>
<path opacity="0.25" d="M547.145 245.845H494.2C490.519 245.845 487.487 242.813 487.487 239.132V210.765C487.487 207.083 490.519 204.052 494.2 204.052H547.145C550.826 204.052 553.858 207.083 553.858 210.765V239.132C553.966 242.813 550.935 245.845 547.145 245.845Z" fill="#E6E6E6"></path>
<path opacity="0.25" d="M624.013 245.845H571.068C567.387 245.845 564.355 242.813 564.355 239.132V210.765C564.355 207.083 567.387 204.052 571.068 204.052H624.013C627.695 204.052 630.726 207.083 630.726 210.765V239.132C630.835 242.813 627.803 245.845 624.013 245.845Z" fill="#E6E6E6"></path>
<path opacity="0.25" d="M700.89 245.845H647.945C644.264 245.845 641.232 242.813 641.232 239.132V210.765C641.232 207.083 644.264 204.052 647.945 204.052H700.89C704.572 204.052 707.603 207.083 707.603 210.765V239.132C707.711 242.813 704.68 245.845 700.89 245.845Z" fill="#E6E6E6"></path>
<path d="M627.374 350.111H407.582C407.582 346.322 410.722 343.182 414.511 343.182H620.445C624.234 343.182 627.374 346.322 627.374 350.111Z" fill="#B5CDFB"></path>
<path d="M713.555 395.424H707.492V401.487H713.555V395.424Z" fill="#C4B6FF"></path>
<path d="M719.619 401.594H713.556V407.657H719.619V401.594Z" fill="#C4B6FF"></path>
<path d="M719.619 389.359H713.556V395.423H719.619V389.359Z" fill="#C4B6FF"></path>
<path d="M725.686 395.424H719.623V401.487H725.686V395.424Z" fill="#C4B6FF"></path>
<path d="M457.926 398.401C457.926 391.147 466.588 385.408 477.415 385.408C488.134 385.408 496.904 391.255 496.904 398.401" fill="#C4B6FF"></path>
<path opacity="0.25" d="M386.791 245.845H335.362C328.649 245.845 323.235 241.415 323.235 235.921V158.92C323.235 153.427 328.649 148.996 335.362 148.996H386.791C393.504 148.996 398.918 153.427 398.918 158.92V235.921C398.918 241.415 393.504 245.845 386.791 245.845Z" fill="#E6E6E6"></path>
<path d="M260.653 165.616C256.971 165.616 252.099 165.074 251.666 161.393C251.45 159.661 252.749 158.036 254.589 157.82C255.564 157.712 256.538 158.145 257.296 158.794C257.838 158.903 259.353 159.227 262.818 159.011C264.767 158.903 267.257 149.808 267.799 138.872H256.214C254.373 138.872 252.965 137.465 252.965 135.624C252.965 133.784 254.373 132.376 256.214 132.376H274.512V135.624C274.403 144.394 273.104 164.966 263.251 165.399C262.385 165.507 261.519 165.616 260.653 165.616ZM258.054 160.635C258.054 160.635 258.054 160.743 258.054 160.635C258.054 160.743 258.054 160.635 258.054 160.635Z" fill="#7D55FF"></path>
<path d="M258.703 201.779C258.053 202.645 257.187 203.728 256.212 204.81C250.149 211.415 238.889 220.401 238.889 220.401L234.125 195.499L230.552 176.659C230.552 176.659 240.729 132.918 256.537 132.918C256.537 132.701 263.358 195.282 258.703 201.779Z" fill="#F2A007"></path>
<path d="M381.157 436.513C368.381 436.513 355.713 430.667 347.593 419.515L278.191 325.318C264.548 306.803 268.446 280.71 286.961 267.068C305.475 253.425 331.569 257.323 345.211 275.838L414.613 370.034C428.256 388.549 424.358 414.642 405.843 428.285C398.373 433.915 389.711 436.513 381.157 436.513Z" fill="#7D55FF"></path>
<path d="M51.6849 407.821C35.9855 407.821 22.1267 396.344 19.6364 380.32C16.8213 362.563 28.9478 345.997 46.7044 343.182L105.604 333.979C123.361 331.164 139.927 343.291 142.742 361.047C145.557 378.804 133.43 395.369 115.674 398.185L56.7737 407.388C55.0414 407.712 53.309 407.821 51.6849 407.821Z" fill="#C4B6FF"></path>
<path d="M256.213 204.81L239.756 221.268L234.126 195.391L248.418 172.87L252.099 203.619L256.213 204.81Z" fill="#875300"></path>
<path d="M51.6863 407.821C43.0246 407.821 34.2545 405.114 26.7838 399.593C8.3775 385.842 4.4797 359.748 18.2303 341.234L70.0926 271.723C83.8432 253.317 109.937 249.419 128.451 263.17C146.858 276.92 150.755 303.014 137.005 321.528L85.1424 391.039C76.9137 402.083 64.3542 407.821 51.6863 407.821Z" fill="#7D55FF"></path>
<path opacity="0.1" d="M51.6863 407.821C43.0246 407.821 34.2545 405.114 26.7838 399.593C8.3775 385.842 4.4797 359.748 18.2303 341.234L70.0926 271.723C83.8432 253.317 109.937 249.419 128.451 263.17C146.966 276.92 150.755 303.014 137.005 321.528L85.1424 391.039C76.9137 402.083 64.3542 407.821 51.6863 407.821Z" fill="#1E1E1E"></path>
<path d="M253.831 124.039C253.831 124.039 253.289 127.72 252.423 133.675C251.99 136.707 251.449 140.496 250.908 144.611C250.799 145.369 250.691 146.235 250.583 146.993C250.15 149.808 249.825 152.839 249.392 155.871C249.067 158.145 248.742 160.527 248.526 162.909C247.984 166.915 247.551 171.029 247.01 175.144C245.386 188.461 243.87 202.103 243.004 213.039C242.895 214.446 242.787 215.746 242.679 217.045C242.679 217.478 242.571 217.803 242.571 218.236C242.246 222.783 242.137 226.681 242.246 229.604C242.246 232.095 242.462 234.044 242.787 235.126C242.895 235.451 243.004 235.776 243.22 235.884C245.169 238.158 234.125 236.534 219.942 233.61C197.854 229.171 168.296 221.7 168.296 221.7L168.946 210.765L169.379 203.403L170.353 186.079L171.436 167.24L253.831 124.039Z" fill="#F2A007"></path>
<path d="M166.021 179.907C165.155 179.907 164.181 179.691 163.314 179.149C162.881 178.825 152.704 172.112 153.895 159.552C154.544 152.623 157.901 147.426 158.226 146.884C159.741 144.611 162.773 144.069 164.938 145.585C167.212 147.101 167.754 150.133 166.346 152.298C166.238 152.406 163.964 155.979 163.531 160.527C162.881 167.24 168.511 171.029 168.511 171.029C170.785 172.545 171.435 175.468 169.919 177.742C169.161 179.149 167.537 179.907 166.021 179.907Z" fill="#B5CDFB"></path>
<path d="M266.063 254.399L172.732 261.437H146.747L157.358 231.662L161.472 220.294L163.096 215.855C164.071 213.256 166.344 211.307 169.159 210.982C169.592 210.874 170.026 210.874 170.459 210.874L191.355 211.415L237.696 212.498H238.129H240.294C241.377 212.498 242.351 212.715 243.218 213.148C244.084 213.581 244.95 214.122 245.6 214.88C245.708 214.988 245.816 215.097 245.924 215.205C246.357 215.746 246.682 216.288 247.007 216.937L254.694 234.153L255.561 235.993L264.872 246.604L266.063 254.399Z" fill="#7D55FF"></path>
<path opacity="0.18" d="M266.063 254.399L172.732 261.437H146.747L153.027 233.828C154.543 233.07 155.95 232.42 157.358 231.662L161.472 220.294L163.096 215.855C164.071 213.256 166.344 211.307 169.159 210.982C169.592 210.874 170.026 210.874 170.459 210.874C186.266 225.707 214.201 227.981 242.568 229.822L254.803 234.261L255.669 236.101L264.98 246.712L266.063 254.399Z" fill="#1E1E1E"></path>
<path d="M169.054 183.589C161.799 163.776 138.413 128.804 159.201 102.061C179.989 75.3173 209.547 53.6629 232.285 60.5923C255.022 67.5217 264.441 72.394 259.461 88.2017C254.48 104.009 263.034 135.3 260.76 139.414C258.486 143.529 240.73 150.458 239.214 160.852C237.698 171.246 232.826 199.83 219.509 200.372C209.656 200.696 192.874 199.181 184.645 198.423C181.505 198.098 178.582 196.582 176.416 194.2C173.709 191.168 170.245 187.054 169.054 183.589Z" fill="#C4B6FF"></path>
<path d="M333.519 271.506L327.889 322.719L319.336 400.133L319.011 403.273L314.896 440.844L309.158 492.923V493.139H99.1102L89.474 334.845L85.5762 271.939C85.5762 255.374 156.386 232.203 157.361 231.662L220.05 233.828L242.896 235.235L255.347 235.993C270.83 248.444 333.519 252.992 333.519 271.506Z" fill="#7D55FF"></path>
<path opacity="0.1" d="M319.227 400.025L318.903 403.165L314.788 440.736L309.05 492.814V493.031H99.1102L89.474 334.737L85.5762 271.939C85.5762 255.374 156.386 232.203 157.361 231.662L220.05 233.828L242.896 235.235L255.347 235.993C122.389 277.569 319.227 400.025 319.227 400.025Z" fill="#1E1E1E"></path>
<path opacity="0.1" d="M309.05 492.814L308.4 493.03L96.7285 386.599L103.55 335.386C109.721 318.82 115.135 314.706 132.242 314.706H257.837C276.677 314.706 309.05 492.814 309.05 492.814Z" fill="#1E1E1E"></path>
<path d="M243.868 150.241C242.46 150.241 241.269 149.375 240.728 147.968C240.186 146.235 241.052 144.395 242.785 143.853L266.605 136.058C268.337 135.516 270.178 136.383 270.719 138.115C271.26 139.847 270.394 141.688 268.662 142.229L244.842 150.025C244.517 150.133 244.192 150.241 243.868 150.241Z" fill="#7D55FF"></path>
<path d="M76.373 526.487L108.422 339.934C111.453 328.024 121.306 319.688 132.675 319.688H258.27C269.639 319.688 279.6 328.024 282.523 339.934L323.233 526.487C234.883 549.008 174.576 541.537 76.373 526.487Z" fill="#C4B6FF"></path>
<path d="M252.202 179.908C250.795 179.908 249.387 179.259 248.413 178.068C247.872 177.31 242.783 170.705 243.866 159.337C244.515 152.407 249.387 145.045 249.929 144.287C251.445 142.013 254.476 141.472 256.642 142.987C258.915 144.503 259.457 147.535 257.941 149.7C256.858 151.324 253.935 156.413 253.502 160.203C252.852 167.674 255.884 171.896 255.992 172.004C257.724 174.062 257.291 177.093 255.234 178.826C254.26 179.583 253.177 179.908 252.202 179.908Z" fill="#B5CDFB"></path>
</svg>